<?xml version="1.0" standalone="no"?>
<!DOCTYPE svg PUBLIC "-//W3C//DTD SVG 20010904//EN"
 "http://www.w3.org/TR/2001/REC-SVG-20010904/DTD/svg10.dtd">
<svg version="1.0" xmlns="http://www.w3.org/2000/svg"
 width="300.000000pt" height="190.000000pt" viewBox="0 0 300.000000 190.000000"
 preserveAspectRatio="xMidYMid meet">
<metadata>
Created by potrace 1.10, written by Peter Selinger 2001-2011
</metadata>
<g transform="translate(0.000000,190.000000) scale(0.100000,-0.100000)"
fill="#000000" stroke="none">
<path d="M0 950 l0 -950 1500 0 1500 0 0 950 0 950 -1500 0 -1500 0 0 -950z
m2636 515 c9 -35 -6 -69 -102 -242 l-85 -154 27 -21 c25 -20 26 -24 20 -86
l-7 -65 50 42 c28 23 64 60 82 82 34 43 63 50 79 18 11 -19 13 -18 40 25 37
58 65 74 91 50 24 -22 24 -44 -1 -119 -12 -33 -23 -78 -27 -100 l-6 -40 50 70
c69 97 79 104 106 77 21 -22 21 -22 2 -54 -28 -49 -100 -149 -129 -180 -14
-16 -36 -28 -50 -28 -31 0 -66 43 -66 81 l0 28 -25 -24 c-13 -14 -29 -25 -35
-25 -13 0 -55 41 -62 61 -4 11 -12 8 -34 -12 -58 -53 -92 -61 -123 -28 l-20
21 -9 -38 c-14 -55 -21 -91 -27 -153 -4 -30 -11 -63 -16 -73 -14 -26 -46 -22
-66 9 -15 22 -18 49 -18 155 l0 127 -22 -21 c-12 -11 -25 -33 -28 -49 -9 -38
-60 -107 -90 -121 -21 -9 -28 -8 -45 7 -29 26 -25 56 15 116 20 29 34 58 31
64 -2 7 -32 16 -65 22 l-61 10 -49 -49 c-54 -53 -82 -60 -117 -27 l-23 22 -6
-29 c-10 -47 -34 -94 -51 -101 -24 -9 -55 29 -61 76 l-6 43 -31 -35 c-44 -48
-81 -70 -106 -62 -33 10 -53 61 -47 117 6 46 5 48 -15 37 -15 -8 -26 -8 -44 1
-20 11 -27 9 -61 -18 -54 -42 -128 -123 -147 -160 -15 -29 -21 -33 -43 -31
-16 1 -21 -50 -22 -207 -1 -147 -3 -162 -21 -179 -19 -17 -21 -17 -40 0 -43
39 -76 249 -66 422 l6 103 -37 -20 c-49 -26 -56 -25 -96 10 -35 30 -57 38 -57
21 0 -10 -79 -51 -97 -51 -25 0 -73 52 -79 86 -3 19 -8 34 -11 34 -3 0 -37
-21 -76 -47 -102 -68 -187 -151 -256 -253 -65 -95 -91 -113 -121 -85 -18 16
-20 15 -40 -24 -41 -81 -100 -42 -121 82 -23 137 -2 337 63 592 32 128 55 168
82 145 22 -17 20 -52 -9 -164 -36 -139 -55 -265 -62 -401 -6 -134 4 -143 31
-30 78 318 192 549 324 658 40 33 68 34 99 5 44 -41 26 -174 -52 -382 -20 -54
-35 -99 -33 -102 2 -2 24 10 48 27 25 17 66 41 91 54 26 13 64 42 85 64 50 50
77 58 103 32 31 -31 28 -82 -8 -120 -16 -17 -39 -31 -51 -31 -16 0 -21 -5 -18
-22 2 -12 8 -23 15 -25 18 -6 78 52 123 123 24 36 56 72 73 80 27 15 32 14 56
-4 39 -29 39 -72 1 -116 -18 -20 -41 -36 -51 -36 -14 0 -19 -7 -19 -25 0 -77
127 52 158 161 15 53 45 82 67 64 20 -16 19 -36 -5 -122 -30 -110 -24 -122 19
-33 65 138 119 178 157 119 15 -22 16 -32 6 -75 -7 -28 -12 -55 -12 -60 0 -14
53 24 122 88 32 29 66 53 75 53 10 0 31 16 46 35 29 36 54 44 75 23 19 -19 15
-41 -23 -118 -33 -71 -60 -169 -53 -192 6 -17 134 152 154 203 9 24 25 53 35
63 17 18 20 19 36 4 13 -12 23 -14 36 -7 36 21 47 -5 47 -109 0 -113 -5 -114
100 26 39 51 86 100 114 120 46 31 50 32 67 16 11 -10 19 -22 19 -28 0 -6 -29
-40 -65 -75 -69 -68 -76 -81 -46 -81 10 0 39 -11 65 -25 52 -27 53 -27 114 25
34 30 47 53 77 135 90 250 209 425 267 394 10 -5 21 -21 24 -34z"/>
<path d="M2572 1465 c-28 -20 -106 -139 -139 -212 -14 -32 -42 -104 -62 -160
-36 -100 -39 -104 -106 -162 l-70 -60 -20 24 c-24 29 -64 45 -111 45 -25 0
-34 4 -34 16 0 25 69 110 112 140 21 15 38 31 38 35 0 31 -75 -24 -130 -95
-94 -122 -147 -181 -165 -185 -17 -3 -18 4 -12 113 3 73 2 116 -4 116 -14 0
-67 -119 -87 -196 -16 -62 -39 -91 -28 -36 3 15 8 47 12 71 3 25 15 69 25 100
21 61 23 71 10 71 -5 0 -17 -24 -27 -52 -23 -71 -173 -258 -206 -258 -13 0 -9
71 7 135 9 33 31 93 50 134 40 84 39 81 20 81 -8 0 -29 -18 -46 -40 -24 -29
-38 -39 -51 -34 -13 4 -31 -7 -61 -39 -23 -24 -62 -59 -87 -77 -25 -18 -63
-50 -84 -69 -28 -26 -37 -30 -31 -16 24 62 55 169 55 189 0 13 -6 29 -14 35
-32 27 -117 -125 -161 -289 -17 -61 -28 -135 -32 -207 -3 -62 -9 -110 -13
-108 -4 3 -11 53 -14 112 -10 155 7 277 70 502 14 49 -15 10 -32 -43 -32 -102
-123 -206 -179 -206 -35 0 -47 57 -25 116 10 26 11 26 25 8 13 -18 14 -18 38
4 32 30 39 58 20 77 -8 8 -17 15 -19 15 -20 0 -50 -30 -84 -85 -73 -114 -153
-166 -180 -115 -11 20 -5 81 11 110 7 13 9 12 14 -2 10 -25 30 -22 54 8 24 31
27 57 7 73 -19 16 -60 -3 -77 -36 -7 -14 -31 -34 -54 -45 -69 -35 -168 -103
-224 -154 -30 -27 -52 -44 -50 -39 3 6 17 37 33 70 70 151 146 388 146 460 0
37 -17 65 -41 65 -76 0 -211 -200 -288 -427 -25 -73 -121 -423 -121 -440 0 -2
-4 -2 -9 1 -5 3 -14 44 -21 92 -19 136 4 347 62 567 27 102 31 144 13 125 -12
-11 -77 -298 -92 -402 -18 -130 -14 -326 8 -371 19 -40 46 -44 59 -9 6 15 28
95 50 178 86 334 182 542 294 638 87 76 87 2 1 -262 -47 -140 -152 -349 -220
-435 -30 -38 -55 -76 -55 -83 0 -33 38 0 91 78 72 107 191 219 304 288 l87 53
-6 -34 c-8 -44 6 -81 38 -103 25 -15 28 -15 70 10 24 14 53 40 65 58 l21 33 0
-27 c0 -40 10 -57 39 -73 23 -12 31 -11 60 2 17 9 48 34 68 57 32 37 35 38 29
15 -36 -157 -32 -393 10 -537 26 -91 37 -60 35 94 -2 150 14 271 51 384 25 77
67 165 97 200 19 24 20 24 21 4 0 -34 -57 -192 -95 -262 -24 -42 -33 -68 -26
-75 6 -6 15 2 27 24 21 42 115 140 175 185 45 33 65 43 55 26 -8 -14 11 -35
27 -29 9 3 38 38 64 76 52 77 75 93 44 33 -11 -21 -27 -66 -35 -99 -31 -120
-15 -182 40 -152 23 12 88 83 137 149 10 14 16 18 13 8 -10 -36 -18 -138 -12
-162 13 -51 33 -28 55 62 12 48 30 105 40 127 l18 40 -1 -66 c-1 -68 12 -99
42 -99 9 0 40 25 70 56 40 43 56 54 65 45 6 -6 25 -11 43 -11 44 0 93 -19 104
-41 8 -15 1 -32 -35 -84 -50 -74 -52 -80 -28 -89 25 -10 72 41 89 99 12 39 28
61 70 99 30 27 57 47 59 44 3 -2 0 -20 -5 -39 -15 -49 -23 -216 -13 -268 12
-66 30 -63 38 6 10 92 42 212 75 277 l29 61 -6 -50 c-8 -63 -7 -85 6 -98 15
-15 64 11 126 67 l50 44 0 -51 c0 -46 3 -52 21 -55 22 -3 58 47 114 156 30 61
35 46 10 -29 -42 -123 -37 -199 11 -199 18 0 159 185 159 209 0 24 -17 7 -69
-69 -62 -91 -87 -120 -103 -120 -15 0 -3 77 27 181 53 179 19 172 -90 -18 -25
-46 -51 -86 -57 -89 -15 -10 -1 91 18 128 25 48 10 54 -24 11 -32 -40 -162
-153 -177 -153 -7 0 -4 48 8 155 1 12 -4 20 -13 20 -21 0 -86 -135 -106 -220
-26 -108 -35 -120 -29 -35 10 141 20 165 155 410 121 218 146 279 122 294 -5
3 -18 -1 -30 -9z m-69 -197 c-48 -89 -94 -175 -101 -191 -7 -16 -15 -27 -17
-25 -9 9 45 151 84 223 46 86 114 180 119 165 2 -6 -36 -83 -85 -172z m-1693
-267 c-12 -24 -40 -28 -40 -7 0 18 44 50 48 37 2 -6 -2 -19 -8 -30z m200 9
c-14 -27 -30 -34 -43 -21 -9 9 -6 17 13 31 29 22 44 17 30 -10z m509 -24 c-35
-49 -50 -59 -42 -25 6 22 63 83 70 75 3 -3 -10 -25 -28 -50z m635 -220 c-9
-15 -19 -25 -21 -22 -3 2 3 16 13 30 9 15 19 25 21 22 3 -2 -3 -16 -13 -30z"/>
<path d="M493 1257 c-89 -98 -173 -289 -237 -545 -14 -55 -26 -106 -26 -112 0
-7 22 16 50 51 58 74 132 213 184 347 39 99 90 284 84 303 -2 6 -27 -14 -55
-44z"/>
</g>
</svg>
